<?xml version="1.0" encoding="utf-8"?>
<!-- Generator: Adobe Illustrator 24.0.0, SVG Export Plug-In . SVG Version: 6.00 Build 0)  -->
<svg version="1.1" id="Layer_1" xmlns="http://www.w3.org/2000/svg" xmlns:xlink="http://www.w3.org/1999/xlink" x="0px" y="0px"
	 viewBox="0 0 48 48" style="enable-background:new 0 0 48 48;" xml:space="preserve">
<style type="text/css">
	.st0{fill:#EC4899;}
</style>
<path class="st0" d="M40.7,0H7.3C3.3,0,0,3.3,0,7.3v33.3c0,4,3.3,7.3,7.3,7.3h33.3c4,0,7.3-3.3,7.3-7.3V7.3C48,3.3,44.7,0,40.7,0z
	 M39.4,16.7L20.7,35.4c-0.4,0.4-0.9,0.6-1.4,0.6s-1-0.2-1.4-0.6l-8-8c-0.8-0.8-0.8-2,0-2.8s2-0.8,2.8,0l6.6,6.6l17.3-17.3
	c0.8-0.8,2-0.8,2.8,0C40.2,14.7,40.2,16,39.4,16.7z"/>
</svg>
