<?xml version="1.0" encoding="utf-8"?>
<!-- Generator: Adobe Illustrator 24.0.0, SVG Export Plug-In . SVG Version: 6.00 Build 0)  -->
<svg version="1.1" id="Layer_1" xmlns="http://www.w3.org/2000/svg" xmlns:xlink="http://www.w3.org/1999/xlink" x="0px" y="0px"
	 viewBox="0 0 500 141" style="enable-background:new 0 0 500 141;" xml:space="preserve">
<style type="text/css">
	.st0{fill:url(#SVGID_1_);}
	.st1{fill:url(#SVGID_2_);}
	.st2{fill:#FFFFFF;}
</style>
<g>
	<g>
		<linearGradient id="SVGID_1_" gradientUnits="userSpaceOnUse" x1="167.4074" y1="2.8025" x2="-4.6319" y2="122.7087">
			<stop  offset="6.979144e-02" style="stop-color:#FF9122"/>
			<stop  offset="1" style="stop-color:#DF00FF"/>
		</linearGradient>
		<path class="st0" d="M111.8,136.6H30.4C16.4,136.6,5,125.2,5,111.1V28.7C5,14.7,16.4,3.3,30.4,3.3h81.3
			c14.1,0,25.4,11.4,25.4,25.4v82.4C137.2,125.2,125.8,136.6,111.8,136.6z"/>
	</g>
	<g>
		<linearGradient id="SVGID_2_" gradientUnits="userSpaceOnUse" x1="30.3883" y1="140.4597" x2="111.8487" y2="-0.6338">
			<stop  offset="0" style="stop-color:#000000;stop-opacity:0.3"/>
			<stop  offset="0.6565" style="stop-color:#FFFFFF;stop-opacity:0"/>
		</linearGradient>
		<path class="st1" d="M111.8,8.3c11.3,0,20.4,9.2,20.4,20.4v82.4c0,11.3-9.2,20.4-20.4,20.4H30.4c-11.3,0-20.4-9.2-20.4-20.4V28.7
			c0-11.3,9.2-20.4,20.4-20.4H111.8 M111.8,3.3H30.4C16.4,3.3,5,14.7,5,28.7v82.4c0,14.1,11.4,25.4,25.4,25.4h81.3
			c14.1,0,25.4-11.4,25.4-25.4V28.7C137.2,14.7,125.8,3.3,111.8,3.3L111.8,3.3z"/>
	</g>
	<path class="st2" d="M99.8,42.5L63.3,79.2c-1.7,1.7-4.6,1.7-6.3,0L42.2,64.3c-2.7-2.7-7.1-2.7-9.8,0l-0.2,0.2
		c-2.7,2.7-2.7,7.2,0,9.9l23,23.1l0.2,0.2c2.7,2.6,6.9,2.6,9.6,0l0.2-0.2l44.5-45.1c2.7-2.7,2.7-7.2,0-9.9l0,0
		C106.9,39.8,102.5,39.8,99.8,42.5z"/>
</g>
<g>
	<path class="st2" d="M191.6,60.9v34.5c0,3,0.8,5.3,2.3,6.9c1.5,1.7,3.3,2.5,5.4,2.5c4,0,7.3-1.8,10.1-5.4l7.9,15
		c-6.6,6.1-13.6,9.2-20.9,9.2c-7.3,0-13.5-2.4-18.6-7.3c-5.1-4.9-7.6-11.5-7.6-19.9V60.9h-8.9V45.4h8.9v-23h21.4v23H210v15.5H191.6z
		"/>
	<path class="st2" d="M286.1,98.5c0,7.6-2.8,13.7-8.3,18.2c-5.5,4.6-12.6,6.9-21.1,6.9c-5.7,0-11.6-1-17.7-3.1
		c-6.2-2-11.7-5.1-16.6-9.1l9.4-13.4c7.9,6.2,16.4,9.3,25.4,9.3c2.7,0,4.9-0.5,6.5-1.6c1.6-1.1,2.4-2.6,2.4-4.4c0-1.8-1.1-3.5-3.3-5
		c-2.2-1.5-5.4-3-9.7-4.3c-4.2-1.3-7.4-2.5-9.7-3.4c-2.2-1-4.8-2.3-7.6-4.1c-5.8-3.6-8.7-9-8.7-16.1c0-7.1,2.8-12.9,8.5-17.4
		c5.7-4.5,13-6.7,22-6.7c9,0,18,3.1,27,9.2l-7.9,14.3c-6.6-4.6-13.2-6.9-19.8-6.9c-6.6,0-9.9,1.8-9.9,5.4c0,2,1,3.6,3.1,4.7
		c2.1,1.1,5.5,2.5,10.4,4c4.8,1.5,8.3,2.7,10.3,3.5c2,0.8,4.5,2.1,7.3,3.8C283.5,85.5,286.1,90.9,286.1,98.5z"/>
	<path class="st2" d="M323.7,122.4h-21.3V16.3h21.3v54.5l23.7-25.5h26.8l-29.1,31.2l30.2,45.9h-25.3l-19.4-29.5l-7,7.3V122.4z"/>
	<path class="st2" d="M442.8,98.5c0,7.6-2.8,13.7-8.3,18.2c-5.5,4.6-12.6,6.9-21.1,6.9c-5.7,0-11.6-1-17.7-3.1
		c-6.2-2-11.7-5.1-16.6-9.1l9.4-13.4c7.9,6.2,16.4,9.3,25.4,9.3c2.7,0,4.9-0.5,6.5-1.6c1.6-1.1,2.4-2.6,2.4-4.4c0-1.8-1.1-3.5-3.3-5
		c-2.2-1.5-5.4-3-9.7-4.3c-4.2-1.3-7.4-2.5-9.7-3.4c-2.2-1-4.8-2.3-7.6-4.1c-5.8-3.6-8.7-9-8.7-16.1c0-7.1,2.8-12.9,8.5-17.4
		c5.7-4.5,13-6.7,22-6.7c9,0,18,3.1,27,9.2l-7.9,14.3c-6.6-4.6-13.2-6.9-19.8-6.9c-6.6,0-9.9,1.8-9.9,5.4c0,2,1,3.6,3.1,4.7
		c2.1,1.1,5.5,2.5,10.4,4c4.8,1.5,8.3,2.7,10.3,3.5c2,0.8,4.5,2.1,7.3,3.8C440.2,85.5,442.8,90.9,442.8,98.5z"/>
	<path class="st2" d="M460.6,119.9c-2.4-2.4-3.6-5.4-3.6-8.9c0-3.5,1.2-6.5,3.6-8.9c2.4-2.4,5.4-3.6,8.9-3.6c3.5,0,6.5,1.2,8.9,3.6
		c2.4,2.4,3.6,5.4,3.6,8.9c0,3.5-1.2,6.5-3.6,8.9c-2.4,2.4-5.4,3.6-8.9,3.6C466,123.6,463.1,122.3,460.6,119.9z"/>
</g>
</svg>
